<svg width="576" height="178" viewBox="0 0 576 178" fill="none" xmlns="http://www.w3.org/2000/svg">
<path d="M283.668 92.9768V103.259H309.347C306.326 114.47 296.112 122.324 283.812 122.324C268.85 122.324 257.126 110.828 257.126 95.9759C257.126 81.1236 268.85 69.6273 283.812 69.6273C294.026 69.6273 302.657 74.9827 307.189 83.2657L317.763 77.6247C311.217 65.6286 298.414 57.4884 283.812 57.4884C262.305 57.4884 245.042 74.7685 245.042 95.9759C245.042 117.255 262.305 134.463 283.812 134.463C305.175 134.463 322.582 117.255 322.582 95.9759V92.9768H283.668ZM363.87 82.4803C357.324 82.4803 351.858 85.4793 348.405 90.3348V83.4799H336.393V133.464H348.405V108.115C348.405 99.3319 354.951 93.4767 363.582 93.4767C365.237 93.4767 366.603 93.7623 367.898 93.9765V82.8373C366.603 82.6231 365.237 82.4803 363.87 82.4803ZM431.196 123.753C428.823 123.753 426.521 122.467 426.521 118.112V83.4799H414.581V88.7639C410.337 84.8366 404.798 82.4803 398.324 82.4803C384.154 82.4803 372.789 93.9765 372.789 108.472C372.789 122.967 384.154 134.463 398.324 134.463C405.661 134.463 412.063 131.25 416.379 126.109C418.896 131.107 423.788 134.463 429.974 134.463C431.484 134.463 432.851 134.106 434.002 133.464V123.753H431.196ZM399.835 123.467C391.419 123.467 384.73 116.826 384.73 108.472C384.73 100.117 391.419 93.4767 399.835 93.4767C408.179 93.4767 414.94 100.117 414.94 108.472C414.94 116.826 408.179 123.467 399.835 123.467ZM482.339 44.4926V88.7639C478.023 84.8366 472.484 82.4803 466.082 82.4803C451.84 82.4803 440.547 93.9765 440.547 108.472C440.547 122.967 451.84 134.463 466.082 134.463C472.484 134.463 478.023 132.107 482.339 128.251V133.464H494.279V44.4926H482.339ZM467.593 123.467C459.177 123.467 452.488 116.826 452.488 108.472C452.488 100.117 459.177 93.4767 467.593 93.4767C475.865 93.4767 482.698 100.117 482.698 108.472C482.698 116.826 475.865 123.467 467.593 123.467ZM567 133.464L541.105 95.119L565.921 58.4881H551.679L534.416 85.1223L517.297 58.4881H502.983L527.726 95.2618L501.832 133.464H516.29L534.416 105.259L552.542 133.464H567Z" fill="#2B5EA5"/>
<path d="M8 74.8544L116.067 126.139L212.009 74.8544L109.741 22L8 74.8544Z" stroke="black" stroke-width="2.07468" stroke-miterlimit="10"/>
<path d="M56.498 98.9267V135.558C56.498 135.558 106.578 183.703 166.674 135.558M198.83 83.2274V109.393" stroke="black" stroke-width="2.07468" stroke-miterlimit="10"/>
<path d="M197.25 125.615C202.199 125.615 206.211 121.633 206.211 116.719C206.211 111.806 202.199 107.823 197.25 107.823C192.3 107.823 188.288 111.806 188.288 116.719C188.288 121.633 192.3 125.615 197.25 125.615Z" stroke="black" stroke-width="2.07468" stroke-miterlimit="10"/>
</svg>
